<?xml version="1.0" encoding="iso-8859-1"?>
<!-- Generator: Adobe Illustrator 18.1.1, SVG Export Plug-In . SVG Version: 6.00 Build 0)  -->
<svg version="1.1" id="Capa_1" xmlns="http://www.w3.org/2000/svg" xmlns:xlink="http://www.w3.org/1999/xlink" x="0px" y="0px"
     viewBox="0 0 16.699 16.699" style="enable-background:new 0 0 16.699 16.699;" xml:space="preserve">
<g>
	<g>
		<path style="fill:#030104;" d="M12.954,6.689c-0.229,0-0.385,0.021-0.467,0.044v1.472c0.097,0.022,0.216,0.029,0.378,0.029
			c0.599,0,0.968-0.303,0.968-0.813C13.833,6.963,13.516,6.689,12.954,6.689z"/>
        <path style="fill:#030104;" d="M3.556,6.689c-0.229,0-0.385,0.021-0.467,0.044v1.472c0.097,0.022,0.215,0.029,0.377,0.029
			c0.599,0,0.969-0.303,0.969-0.813C4.435,6.963,4.117,6.689,3.556,6.689z"/>
        <path style="fill:#030104;" d="M0,4.599V12.1h16.699V4.599H0z M5.093,8.575C4.709,8.938,4.139,9.1,3.474,9.1
			c-0.148,0-0.281-0.007-0.385-0.021v1.782H1.973V5.942c0.348-0.059,0.835-0.104,1.523-0.104c0.695,0,1.191,0.133,1.523,0.399
			c0.319,0.251,0.534,0.666,0.534,1.154C5.553,7.88,5.39,8.294,5.093,8.575z M10.385,10.861H9.26V8.775H7.404v2.086H6.272V5.876
			h1.132v1.916H9.26V5.876h1.125V10.861z M14.492,8.575C14.108,8.938,13.539,9.1,12.874,9.1c-0.148,0-0.281-0.007-0.386-0.021v1.782
			h-1.116V5.942c0.348-0.059,0.836-0.104,1.523-0.104c0.695,0,1.191,0.133,1.524,0.399c0.317,0.251,0.532,0.666,0.532,1.154
			C14.952,7.88,14.788,8.294,14.492,8.575z"/>
	</g>
</g>
    <g>
</g>
    <g>
</g>
    <g>
</g>
    <g>
</g>
    <g>
</g>
    <g>
</g>
    <g>
</g>
    <g>
</g>
    <g>
</g>
    <g>
</g>
    <g>
</g>
    <g>
</g>
    <g>
</g>
    <g>
</g>
    <g>
</g>
</svg>
